Coordinates
version=1
nRows=6
nColumns=36
inDegrees=yes

Units are S.I. units (second, meters, Newtons, ...)
If the header above contains a line with 'inDegrees', this indicates whether rotational values are in degrees (yes) or radians (no).

endheader
time	pelvis_tilt	pelvis_list	pelvis_rotation	pelvis_tx	pelvis_ty	pelvis_tz	hip_flexion_r	hip_adduction_r	hip_rotation_r	knee_angle_r	knee_angle_r_beta	ankle_angle_r	subtalar_angle_r	mtp_angle_r	hip_flexion_l	hip_adduction_l	hip_rotation_l	knee_angle_l	knee_angle_l_beta	ankle_angle_l	subtalar_angle_l	mtp_angle_l	lumbar_extension	lumbar_bending	lumbar_rotation	arm_flex_r	arm_add_r	arm_rot_r	elbow_flex_r	pro_sup_r	arm_flex_l	arm_add_l	arm_rot_l	elbow_flex_l	pro_sup_l
      1.93000000	    -16.14902631	     -1.76735165	      4.04867772	     -0.31430926	      0.79698759	     -0.57704275	     67.71119109	      0.98494010	     -0.19973819	     85.75667739	      1.49673638	     31.87625222	    -18.67821602	     -7.50103586	     67.78653325	     -2.74993223	      1.14514101	     85.37370545	      1.49005225	     34.17900614	     -7.56810564	     -7.50103586	    -24.37580032	      3.15786087	      1.02596266	     28.16099492	    -13.50383306	      0.21615226	     89.65602067	    112.20528576	     20.61348312	    -27.77743420	     -0.14590100	     82.81034132	     93.18943437
      1.94000000	    -15.77642828	     -1.65604864	      3.95647762	     -0.31046213	      0.79753955	     -0.57747185	     67.09064630	      1.19297794	      0.08121938	     85.92288189	      1.49963719	     32.05497765	    -18.88210685	     -7.50102728	     67.10386762	     -2.70775161	      1.11896358	     85.52164522	      1.49263429	     34.48593948	     -7.60317580	     -7.50102728	    -24.04762532	      3.08442953	      0.89644688	     29.27266247	    -14.81369075	      0.77354507	     91.75523895	    112.35168862	     21.66948292	    -29.20253624	     -0.40773087	     84.79211110	     93.30981128
      1.95000000	    -15.40138141	     -1.52127688	      3.89613501	     -0.30639022	      0.79881205	     -0.57782930	     66.37831180	      1.40749127	      0.42112905	     85.98315188	      1.50068910	     32.21365466	    -19.12441400	     -7.50101895	     66.32866016	     -2.61757752	      1.07377571	     85.53008386	      1.49278157	     34.71939475	     -7.67288226	     -7.50101895	    -23.57261846	      3.00530742	      0.69764108	     30.71653466	    -16.35778838	      1.25406119	     94.07019761	    112.46860989	     22.89972449	    -30.97708465	     -0.75326836	     86.99913962	     93.42871970
      1.96000000	    -15.00912239	     -1.35363712	      3.85020317	     -0.30213031	      0.80091529	     -0.57809584	     65.53200656	      1.61618587	      0.79066644	     85.87181186	      1.49874585	     32.33155001	    -19.43396923	     -7.50101036	     65.42909759	     -2.47701751	      1.02197643	     85.38393703	      1.49023083	     34.85781960	     -7.79266303	     -7.50101036	    -22.99203484	      2.91233984	      0.44108551	     32.52440254	    -18.17239938	      1.77539406	     96.64138934	    112.56207666	     24.30510411	    -33.05900519	     -1.24368298	     89.45065112	     93.54223415
      1.97000000	    -14.65435350	     -1.20000745	      3.89344152	     -0.29782251	      0.80377056	     -0.57844513	     64.63015273	      1.74206375	      1.12924256	     85.62351568	      1.49441227	     32.39425917	    -19.71151136	     -7.50100361	     64.50640146	     -2.25557741	      1.00406334	     85.08901561	      1.48508348	     34.88652030	     -7.93622815	     -7.50100361	    -22.24547118	      2.88812293	      0.13780103	     34.71364178	    -20.39480491	      2.45256641	     99.40645119	    112.66275270	     26.07237955	    -35.28444903	     -1.82063896	     92.01900470	     93.68671540
      1.98000000	    -14.14024487	     -1.02677686	      3.94649677	     -0.29324340	      0.80804212	     -0.57902156	     63.40350898	      1.72421900	      1.37349667	     85.14063866	      1.48598447	     32.32937647	    -19.91035655	     -7.50099229	     63.25496739	     -2.01467639	      0.94978188	     84.53900520	      1.47548399	     34.78594101	     -8.24086525	     -7.50099229	    -21.62538292	      2.83658731	     -0.25108093	     37.37903005	    -23.08008965	      3.29492537	    102.27122159	    112.63666258	     27.98772748	    -37.81810486	     -2.68894726	     94.82347948	     93.77000982
